<svg xmlns="http://www.w3.org/2000/svg" width="32" height="35" viewBox="0 0 32 35">
    <g fill="#1E5253" fill-rule="nonzero">
        <path d="M31.902 12.335v-5.16c0-2.665-2.352-4.836-5.274-4.91V5.308a3.14 3.14 0 0 1-3.137 3.137 3.14 3.14 0 0 1-3.136-3.137V2.257h-8.893v3.052a3.14 3.14 0 0 1-3.137 3.136A3.14 3.14 0 0 1 5.19 5.308v-3.04C2.315 2.39.016 4.541.016 7.175v21.54a5.435 5.435 0 0 0 5.428 5.427h21.03a5.435 5.435 0 0 0 5.428-5.428V12.335zm-2.362 16.38a3.069 3.069 0 0 1-3.066 3.065H5.444a3.069 3.069 0 0 1-3.065-3.065v-16.38H29.54v16.38z"/>
        <path d="M6.96 1.365v3.943a1.365 1.365 0 1 0 2.731 0V1.365a1.365 1.365 0 1 0-2.73 0zM23.492 0c-.754 0-1.366.612-1.366 1.366v3.943a1.365 1.365 0 1 0 2.731 0V1.365A1.366 1.366 0 0 0 23.492.001zM12.008 28.648c1.54 0 2.703-.43 3.489-1.29.785-.86 1.178-1.858 1.178-2.993 0-1.08-.336-1.93-1.009-2.553a4.315 4.315 0 0 0-.495-.4c-.27-.183-.29-.313-.036-.51.143-.112.283-.246.421-.404.469-.543.703-1.209.703-1.999 0-1.115-.392-2.005-1.178-2.668-.786-.663-1.819-.994-3.1-.994-.69 0-1.272.083-1.747.25a3.539 3.539 0 0 0-1.229.721c-.461.444-.8.928-1.016 1.453-.142.418-.241.855-.296 1.308-.039.324.219.588.545.588h1.28c.325 0 .577-.267.624-.59a2.17 2.17 0 0 1 .385-.992c.292-.394.75-.592 1.37-.592.542 0 .961.16 1.26.48.297.321.447.738.447 1.25 0 .79-.292 1.314-.876 1.573-.253.115-.653.19-1.198.227a.624.624 0 0 0-.59.612v.707c0 .325.266.587.591.605.577.03 1.02.109 1.328.235.713.296 1.07.885 1.07 1.766 0 .667-.193 1.177-.577 1.532a1.93 1.93 0 0 1-1.352.532c-.843 0-1.425-.324-1.744-.971a2.518 2.518 0 0 1-.219-.743c-.047-.323-.304-.59-.63-.59h-1.41a.534.534 0 0 0-.547.589c.088.8.29 1.467.603 2 .739 1.241 2.057 1.861 3.955 1.861zM19.346 19.064h1.974a.59.59 0 0 1 .59.59v8.07c0 .326.265.59.59.59h1.521a.59.59 0 0 0 .59-.59V15.492a.59.59 0 0 0-.59-.59h-1.02c-.327 0-.595.122-.627.27a4.102 4.102 0 0 1-.066.266c-.117.4-.29.721-.517.962-.332.35-.763.585-1.292.703-.246.055-.632.1-1.154.135a.633.633 0 0 0-.59.621v.614c0 .327.266.591.591.591z"/>
    </g>
</svg>
