<svg xmlns="http://www.w3.org/2000/svg" width="40" height="36" viewBox="0 0 40 36">
    <path fill="#1E5253" fill-rule="nonzero" d="M39.753 17.272L33.867 4.204v-.001l-.009-.017a.876.876 0 0 0-.069-.124l-.022-.03a.888.888 0 0 0-.203-.202l-.026-.02a.902.902 0 0 0-.132-.071l-.04-.015a.887.887 0 0 0-.112-.035l-.047-.01a.88.88 0 0 0-.16-.016H22.662a2.809 2.809 0 0 0-.975-1.37V1.009a.887.887 0 0 0-.89-.884h-1.659a.887.887 0 0 0-.889.884v1.307c-.438.342-.772.81-.946 1.348H6.886a.898.898 0 0 0-.16.016l-.046.01a.878.878 0 0 0-.111.035l-.04.015a.886.886 0 0 0-.133.072c-.01.006-.017.013-.026.02a.864.864 0 0 0-.095.077l-.033.033a.884.884 0 0 0-.075.09l-.023.031a.876.876 0 0 0-.069.124l-.007.017-.001.001L.159 17.318a.878.878 0 0 0-.159.504c0 3.78 3.09 6.856 6.886 6.856 3.797 0 6.886-3.076 6.886-6.856 0-.187-.06-.36-.16-.504L8.26 5.433h9.064c.179.514.503.96.925 1.29v22.19h-7.882a.89.89 0 0 0-.79.48l-2.445 4.72a.882.882 0 0 0 .03.866.89.89 0 0 0 .76.425h24.096a.887.887 0 0 0 .752-1.357l-2.411-4.654a.89.89 0 0 0-.79-.48h-7.883V6.744a2.81 2.81 0 0 0 .954-1.31h9.036L26.257 17.46l-.003.01-.012.029a.888.888 0 0 0-.038.124l-.008.032a.873.873 0 0 0-.015.153l-.002.014c0 3.78 3.09 6.856 6.886 6.856 3.797 0 6.886-3.076 6.886-6.856a.874.874 0 0 0-.198-.55zm-28.26-.335H2.279L6.886 6.711l4.607 10.226zM21.018 4.52c0 .569-.465 1.032-1.037 1.032a1.036 1.036 0 0 1-1.037-1.032c0-.57.465-1.033 1.037-1.033.572 0 1.037.463 1.037 1.033zm7.423 12.418l4.607-10.226 4.606 10.226h-9.213z"/>
</svg>
