<svg xmlns="http://www.w3.org/2000/svg" width="33" height="36" viewBox="0 0 33 36">
    <g fill="#1E5253" fill-rule="nonzero">
        <path d="M32.832 29.691l-4.036-8.656a14.925 14.925 0 0 1-9.738 6.257l3.38 7.246c.431.927 1.768.866 2.116-.092l1.732-4.758.357-.166 4.758 1.732c.955.35 1.863-.64 1.431-1.563zM16.5 0C9.544 0 3.883 5.66 3.883 12.617c0 6.957 5.66 12.616 12.617 12.616 6.957 0 12.617-5.66 12.617-12.616C29.117 5.66 23.457 0 16.5 0zm6.139 11.69l-2.237 2.18.529 3.08c.161.941-.83 1.648-1.665 1.21L16.5 16.706l-2.766 1.454c-.84.44-1.825-.274-1.664-1.21l.528-3.08-2.237-2.18c-.68-.663-.302-1.82.636-1.957l3.092-.449 1.383-2.802c.418-.85 1.638-.851 2.057 0l1.382 2.802 3.093.45c.938.136 1.315 1.293.635 1.956zM4.204 21.035L.168 29.69c-.434.928.483 1.912 1.431 1.563l4.758-1.732.357.166 1.732 4.758c.347.955 1.684 1.021 2.117.092l3.38-7.246a14.925 14.925 0 0 1-9.739-6.257z"/>
    </g>
</svg>
