<svg xmlns="http://www.w3.org/2000/svg" width="21" height="21" viewBox="0 0 21 21">
    <g fill="none" fill-rule="nonzero">
        <path fill="#00ABE3" d="M20.376 15.541c0 2.823-2.28 5.137-5.062 5.137H5.224c-2.782 0-5.062-2.314-5.062-5.137V5.301C.162 2.478 2.426.164 5.223.164h10.091c2.781 0 5.062 2.314 5.062 5.137v10.24z"/>
        <path fill="#FFF" d="M16.22 5.498a5.14 5.14 0 0 1-1.65.623 2.568 2.568 0 0 0-1.892-.82 2.597 2.597 0 0 0-2.587 2.593c0 .196.016.393.064.59A7.348 7.348 0 0 1 4.82 5.777a2.51 2.51 0 0 0-.356 1.296c0 .903.47 1.69 1.165 2.15-.42-.017-.841-.131-1.149-.328v.032c0 1.248.874 2.298 2.054 2.528-.21.065-.453.098-.695.098-.162 0-.34-.016-.485-.05a2.554 2.554 0 0 0 2.41 1.79c-.89.689-2.006 1.1-3.219 1.1-.21 0-.42-.017-.614-.034a7.297 7.297 0 0 0 3.961 1.166c4.755 0 7.358-3.939 7.358-7.352v-.329c.502-.36.938-.82 1.294-1.345-.469.213-.97.344-1.488.41a2.49 2.49 0 0 0 1.165-1.411"/>
        <path fill="#000" d="M15.314 20.842H5.224C2.343 20.842 0 18.462 0 15.54V5.301C0 2.38 2.345 0 5.223 0h10.091c2.878 0 5.223 2.38 5.223 5.3v10.241c0 2.921-2.345 5.3-5.223 5.3zM5.224.328c-2.701 0-4.9 2.232-4.9 4.973v10.24c0 2.74 2.199 4.972 4.9 4.972h10.09c2.7 0 4.9-2.231 4.9-4.972V5.301c0-2.74-2.2-4.973-4.9-4.973H5.224z"/>
        <path fill="#000" d="M14.958 19.857H5.58c-2.506 0-4.625-2.15-4.625-4.693V5.662C.97 3.118 3.073.985 5.58.985h9.33c.098 0 .162.065.162.164 0 .098-.064.164-.161.164H5.579c-2.329 0-4.285 1.986-4.285 4.349v9.518c0 2.363 1.973 4.365 4.301 4.365h9.38c2.328 0 4.285-2.002 4.285-4.365v-4.595c0-.099.064-.164.161-.164s.162.065.162.164v4.595c-.016 2.544-2.118 4.677-4.625 4.677z"/>
        <path fill="#000" d="M18.08 2.675a.146.146 0 0 1-.114-.05c-.825-.836-1.924-1.312-3.04-1.312-.097 0-.162-.066-.162-.164 0-.099.065-.164.162-.164 1.197 0 2.393.508 3.266 1.411a.16.16 0 0 1 0 .23.173.173 0 0 1-.113.049zM15.265 8.353c-.097 0-.161-.066-.161-.164v-.328c0-.05.016-.115.064-.148a5.07 5.07 0 0 0 .922-.853c-.323.098-.663.18-1.002.213-.081.016-.146-.033-.178-.115-.033-.082 0-.148.064-.197.502-.295.89-.771 1.068-1.345.032-.083.113-.132.21-.099.08.033.13.115.097.213-.13.41-.356.788-.663 1.1a4.55 4.55 0 0 0 .792-.279.153.153 0 0 1 .194.05c.049.048.049.13.017.196-.34.509-.76.952-1.262 1.33v.246c0 .098-.08.18-.162.18z"/>
        <path fill="#000" d="M7.891 15.705c-1.439 0-2.846-.41-4.058-1.182-.065-.032-.097-.114-.065-.196s.097-.115.178-.115a4.991 4.991 0 0 0 3.363-.788 2.727 2.727 0 0 1-2.118-1.87c-.016-.05 0-.116.032-.165a.13.13 0 0 1 .146-.05c.145.034.307.05.453.05a2.75 2.75 0 0 1-1.504-2.462v-.032c0-.066.032-.115.08-.148a.145.145 0 0 1 .162 0c.146.098.324.164.502.213a2.733 2.733 0 0 1-.793-1.903c0-.493.13-.969.372-1.379.032-.05.081-.082.13-.082.048 0 .096.016.129.066a7.172 7.172 0 0 0 5.013 2.625 3.505 3.505 0 0 1-.032-.41A2.76 2.76 0 0 1 12.63 5.12c.727 0 1.423.296 1.94.804a4.967 4.967 0 0 0 1.504-.59c.08-.05.178-.017.226.065.049.082.017.18-.064.23-.534.312-1.1.525-1.698.64a.13.13 0 0 1-.146-.05 2.414 2.414 0 0 0-1.779-.77 2.423 2.423 0 0 0-2.425 2.428c0 .18.016.378.064.558.017.05 0 .099-.032.148a.146.146 0 0 1-.13.065 7.466 7.466 0 0 1-5.287-2.576 2.4 2.4 0 0 0-.227 1.017c0 .805.42 1.56 1.1 2.019.065.033.08.115.065.18-.016.066-.081.115-.162.115a2.705 2.705 0 0 1-.97-.213 2.408 2.408 0 0 0 1.908 2.133c.08.017.13.082.13.148 0 .082-.05.148-.114.164-.307.082-.647.115-.986.082a2.43 2.43 0 0 0 2.167 1.428c.064 0 .129.05.145.115a.187.187 0 0 1-.048.18 5.227 5.227 0 0 1-3.25 1.133 7.158 7.158 0 0 0 3.298.804c2.474 0 4.577-1.1 5.919-3.102.048-.082.145-.098.226-.049.081.05.097.148.049.23-1.359 2.1-3.558 3.25-6.162 3.25z"/>
    </g>
</svg>
