<svg xmlns="http://www.w3.org/2000/svg" width="21" height="21" viewBox="0 0 21 21">
    <g fill="none" fill-rule="nonzero">
        <path fill="#0074B5" d="M20.376 15.541c0 2.823-2.28 5.137-5.062 5.137H5.224c-2.782 0-5.062-2.314-5.062-5.137V5.301c0-2.823 2.28-5.137 5.061-5.137h10.091c2.781 0 5.062 2.314 5.062 5.137v10.24z"/>
        <g fill="#FFF">
            <path d="M4.01 8.304h2.896v8.468H4.01zM5.433 7.007c.809 0 1.472-.672 1.472-1.493 0-.82-.663-1.493-1.472-1.493-.808 0-1.471.672-1.471 1.493 0 .82.663 1.493 1.471 1.493M16.527 12.128c0-2.298-.47-3.84-3.105-3.84-1.278 0-2.102.508-2.442 1.148h-.065V8.304H8.668v8.468h2.41v-4.185c0-1.116.226-2.199 1.584-2.199 1.342 0 1.472 1.28 1.472 2.265v4.102h2.409v-4.627h-.016z"/>
        </g>
        <path fill="#000" d="M15.314 20.842H5.224C2.343 20.842 0 18.462 0 15.54V5.301C0 2.38 2.345 0 5.223 0h10.091c2.878 0 5.223 2.38 5.223 5.3v10.241c0 2.921-2.345 5.3-5.223 5.3zM5.224.328c-2.701 0-4.9 2.232-4.9 4.973v10.24c0 2.74 2.199 4.972 4.9 4.972h10.09c2.7 0 4.9-2.231 4.9-4.972V5.301c0-2.74-2.2-4.973-4.9-4.973H5.224z"/>
        <path fill="#000" d="M14.958 19.857H5.58c-2.506 0-4.609-2.15-4.609-4.693V5.662C.97 3.118 3.073.985 5.58.985h9.347c.097 0 .162.065.162.164 0 .098-.065.164-.162.164H5.579c-2.329 0-4.285 1.986-4.285 4.349v9.518c0 2.363 1.973 4.365 4.285 4.365h9.38c2.328 0 4.285-2.002 4.285-4.365v-4.595c0-.099.064-.164.161-.164s.162.065.162.164v4.595c0 2.544-2.102 4.677-4.609 4.677z"/>
        <path fill="#000" d="M18.063 2.675a.146.146 0 0 1-.113-.05c-.825-.836-1.924-1.312-3.04-1.312-.097 0-.162-.066-.162-.164 0-.099.065-.164.162-.164 1.196 0 2.377.508 3.266 1.411a.16.16 0 0 1 0 .23c-.016.033-.064.049-.113.049zM16.527 16.936h-2.41c-.097 0-.161-.066-.161-.164v-4.103c0-1.1-.162-2.1-1.31-2.1-1.003 0-1.423.59-1.423 2.034v4.185c0 .099-.065.164-.162.164H8.668c-.097 0-.162-.065-.162-.164V8.304c0-.099.065-.164.162-.164h2.247c.098 0 .162.065.162.164v.705c.485-.541 1.31-.853 2.345-.853.097 0 .162.066.162.164 0 .099-.065.164-.162.164-1.116 0-1.957.378-2.312 1.034a.17.17 0 0 1-.146.082h-.049c-.097 0-.161-.065-.161-.164v-.968H8.829v8.14h2.086v-4.021c0-1.017.178-2.363 1.747-2.363 1.633 0 1.633 1.772 1.633 2.429v3.938h2.086V12.21c0-.099.065-.165.162-.165s.162.066.162.165v4.562c-.016.082-.097.164-.178.164zm-9.622 0H4.01c-.097 0-.161-.066-.161-.164V8.304c0-.099.064-.164.161-.164h2.895c.097 0 .162.065.162.164v8.468c0 .082-.081.164-.162.164zm-2.733-.328h2.571v-8.14h-2.57v8.14zM5.433 7.17A1.641 1.641 0 0 1 3.8 5.514c0-.919.728-1.657 1.633-1.657.098 0 .162.065.162.164 0 .098-.064.164-.162.164-.727 0-1.31.59-1.31 1.329 0 .738.583 1.33 1.31 1.33.728 0 1.31-.592 1.31-1.33 0-.098.065-.164.162-.164s.162.066.162.164c0 .919-.728 1.657-1.634 1.657z"/>
    </g>
</svg>
