<svg xmlns="http://www.w3.org/2000/svg" width="21" height="21" viewBox="0 0 21 21">
    <g fill="none" fill-rule="nonzero">
        <path fill="#235B9E" d="M20.376 15.541c0 2.823-2.28 5.137-5.062 5.137H5.224c-2.782 0-5.062-2.314-5.062-5.137V5.301c0-2.823 2.28-5.137 5.061-5.137h10.091c2.781 0 5.062 2.314 5.062 5.137v10.24z"/>
        <path fill="#FFF" d="M8.668 16.772h2.41V10.42h1.907l.227-2.61h-1.973v-.984c0-.492.307-.657.534-.657h1.39V4.037H11.19c-2.167 0-2.684 1.641-2.684 2.675v1.116H7.39v2.593h1.278v6.35z"/>
        <path fill="#000" d="M11.077 16.936h-2.41c-.096 0-.161-.066-.161-.164v-6.187H7.39c-.097 0-.162-.066-.162-.164V7.81c0-.098.065-.164.162-.164h.954v-.951c0-1.363.744-2.84 2.846-2.84h1.973c.097 0 .162.066.162.165v2.166c0 .098-.065.164-.162.164h-1.39c-.081 0-.372.033-.372.492v.82h1.81c.05 0 .082.017.114.05a.188.188 0 0 1 .048.131l-.226 2.61c0 .082-.08.147-.162.147H11.24v1.953c0 .099-.065.164-.162.164s-.162-.065-.162-.164v-2.133c0-.099.065-.164.162-.164h1.763l.194-2.281h-1.795c-.097 0-.162-.066-.162-.164v-.985c0-.558.356-.82.696-.82h1.229V4.184H11.19c-.42 0-2.522.115-2.522 2.51v1.117c0 .098-.065.164-.162.164h-.954v2.28h1.116c.097 0 .161.066.161.165v6.187h2.086V15.31c0-.098.065-.164.162-.164s.162.066.162.164v1.46c0 .083-.081.165-.162.165z"/>
        <path fill="#000" d="M15.314 20.842H5.224C2.343 20.842 0 18.462 0 15.54V5.301C0 2.38 2.345 0 5.223 0h10.091c2.878 0 5.223 2.38 5.223 5.3v10.241c0 2.921-2.345 5.3-5.223 5.3zM5.224.328c-2.701 0-4.9 2.232-4.9 4.973v10.24c0 2.74 2.199 4.972 4.9 4.972h10.09c2.7 0 4.9-2.231 4.9-4.972V5.301c0-2.74-2.2-4.973-4.9-4.973H5.224z"/>
        <path fill="#000" d="M14.958 19.857H5.58c-2.506 0-4.609-2.15-4.609-4.693V5.662C.97 3.118 3.073.985 5.58.985h9.347c.097 0 .162.065.162.164 0 .098-.065.164-.162.164H5.579c-2.329 0-4.285 1.986-4.285 4.349v9.518c0 2.363 1.973 4.365 4.285 4.365h9.38c2.328 0 4.285-2.002 4.285-4.365v-4.595c0-.099.064-.164.161-.164s.162.065.162.164v4.595c0 2.544-2.102 4.677-4.609 4.677z"/>
        <path fill="#000" d="M18.063 2.675a.146.146 0 0 1-.113-.05c-.825-.836-1.924-1.312-3.04-1.312-.097 0-.162-.066-.162-.164 0-.099.065-.164.162-.164 1.196 0 2.377.508 3.266 1.411a.16.16 0 0 1 0 .23c-.016.033-.064.049-.113.049z"/>
    </g>
</svg>
