<svg xmlns="http://www.w3.org/2000/svg" width="18" height="18" viewBox="0 0 18 18">
    <path fill="#4A4A4A" fill-rule="nonzero" d="M16.293 0H2.64C1.701 0 .933.78.933 1.731v13.85c0 .952.768 1.732 1.707 1.732h13.653c.939 0 1.707-.78 1.707-1.732V1.731C18 .78 17.232 0 16.293 0zM6.053 14.716h-2.56V6.925h2.56v7.79zm-1.28-9.263a1.54 1.54 0 0 1-1.536-1.558 1.54 1.54 0 0 1 1.536-1.558A1.54 1.54 0 0 1 6.31 3.895a1.54 1.54 0 0 1-1.536 1.558zm10.667 9.263h-2.56v-4.588c0-.693-.597-1.299-1.28-1.299s-1.28.606-1.28 1.299v4.588H7.76V6.925h2.56v1.039c.427-.693 1.365-1.212 2.133-1.212 1.622 0 2.987 1.385 2.987 3.03v4.934z"/>
</svg>
