<svg xmlns="http://www.w3.org/2000/svg" width="14" height="21" viewBox="0 0 14 21">
    <g fill="none" fill-rule="nonzero">
        <path fill="#324D5B" d="M6.305 9.81v10.463c0 .362.311.654.696.654.385 0 .696-.292.696-.654V9.81H6.305z"/>
        <path fill="#2760AA" d="M7.001 0c3.845 0 6.961 2.928 6.961 6.54 0 3.611-3.116 6.54-6.96 6.54C3.156 13.08.04 10.151.04 6.54S3.157 0 7.001 0z"/>
        <path fill="#4990E2" d="M9.09 3.27c1.153 0 2.088.878 2.088 1.962 0 1.083-.935 1.962-2.089 1.962-1.152 0-2.088-.878-2.088-1.962 0-1.083.936-1.961 2.088-1.961z"/>
        <path fill="#3B5999" d="M7.697 12.427c-3.843 0-6.96-2.93-6.96-6.541 0-1.64.646-3.134 1.707-4.282C.974 2.804.04 4.568.04 6.54c0 3.611 3.117 6.54 6.961 6.54 2.1 0 3.977-.877 5.254-2.258a7.183 7.183 0 0 1-4.558 1.605z"/>
    </g>
</svg>
