<svg xmlns="http://www.w3.org/2000/svg" width="18" height="18" viewBox="0 0 18 18">
    <path fill="#4A4A4A" fill-rule="nonzero" d="M16.991.99A3.247 3.247 0 0 0 14.61 0H3.371C2.443 0 1.65.33.99.99.33 1.648 0 2.442 0 3.37V14.61c0 .928.33 1.723.99 2.382.659.66 1.453.989 2.381.989h2.143c-.133-1.202-.106-2.193.082-2.973l1.147-4.847c-.187-.382-.281-.854-.281-1.416 0-.648.166-1.192.497-1.633.332-.441.736-.661 1.212-.661.382 0 .677.126.884.38.206.254.31.572.31.954 0 .242-.043.533-.129.872-.086.34-.2.738-.345 1.194-.144.457-.248.818-.31 1.083-.11.468-.02.872.269 1.212.289.339.667.51 1.136.51.827 0 1.504-.461 2.03-1.382.528-.921.79-2.037.79-3.348 0-1.007-.325-1.826-.977-2.459-.651-.632-1.559-.948-2.722-.948-1.303 0-2.358.416-3.166 1.247-.808.831-1.212 1.832-1.212 3.003 0 .686.195 1.272.586 1.756a.508.508 0 0 1 .128.492c-.039.132-.097.37-.175.713-.032.11-.088.184-.17.223a.337.337 0 0 1-.275 0c-.601-.25-1.056-.68-1.364-1.288-.308-.608-.462-1.31-.462-2.107 0-.515.084-1.032.251-1.551a5.29 5.29 0 0 1 .779-1.498c.351-.48.77-.908 1.258-1.282.488-.375 1.085-.673 1.791-.896a7.54 7.54 0 0 1 2.277-.333 6.14 6.14 0 0 1 2.306.427c.71.285 1.305.663 1.786 1.135.48.473.856 1.015 1.13 1.628a4.62 4.62 0 0 1 .409 1.902c0 1.764-.447 3.221-1.34 4.372-.894 1.151-2.047 1.727-3.46 1.727-.468 0-.907-.11-1.317-.328-.41-.218-.696-.48-.86-.784-.343 1.366-.55 2.181-.62 2.446-.18.687-.601 1.507-1.265 2.459h8.487c.929 0 1.723-.33 2.382-.99.66-.659.99-1.453.99-2.382V3.372c0-.929-.33-1.723-.99-2.383z"/>
</svg>
