<svg xmlns="http://www.w3.org/2000/svg" width="16" height="16" viewBox="0 0 16 16">
    <path fill="#1E5253" fill-rule="nonzero" d="M15.104.88A2.886 2.886 0 0 0 12.986 0h-9.99C2.172 0 1.467.293.88.88A2.887 2.887 0 0 0 0 2.996v9.99c0 .825.293 1.53.88 2.117.586.586 1.291.88 2.117.88h9.99c.825 0 1.53-.294 2.117-.88.586-.586.879-1.292.879-2.118v-9.99c0-.825-.293-1.53-.88-2.117zM13.09 12.131c-.146.32-.473.597-.983.833s-.963.354-1.358.354c-.111 0-.23-.009-.354-.026a3.393 3.393 0 0 1-.66-.146 5.56 5.56 0 0 1-.308-.104 42.205 42.205 0 0 0-.655-.244c-1.138-.417-2.25-1.168-3.335-2.253C4.35 9.46 3.6 8.348 3.184 7.21a34.718 34.718 0 0 0-.245-.655 5.934 5.934 0 0 1-.197-.65 5.484 5.484 0 0 1-.052-.318 2.579 2.579 0 0 1-.026-.354c0-.395.118-.848.354-1.358.236-.51.513-.838.832-.983a2.74 2.74 0 0 1 1.051-.23c.076 0 .132.008.167.022.034.014.092.076.171.187.08.111.167.251.26.421l.276.495a21.914 21.914 0 0 1 .416.77c.021.034.066.1.136.197s.121.184.156.26a.53.53 0 0 1 .052.219c0 .104-.071.23-.214.38a3.55 3.55 0 0 1-.468.41c-.17.126-.326.26-.468.402-.142.142-.213.258-.213.348 0 .049.012.106.036.172a1.61 1.61 0 0 0 .167.338c.045.077.074.125.088.146.381.687.82 1.278 1.316 1.774a7.942 7.942 0 0 0 1.775 1.316c.02.014.069.044.145.089a1.583 1.583 0 0 0 .338.166.512.512 0 0 0 .173.037c.11 0 .263-.115.457-.344.195-.229.392-.456.594-.681.2-.226.363-.338.489-.338a.53.53 0 0 1 .218.052 1.6 1.6 0 0 1 .26.156c.097.07.163.114.198.135l.551.302c.368.194.675.366.921.515.247.149.38.251.401.307.014.034.02.09.02.166 0 .333-.076.683-.229 1.05z"/>
</svg>
