<svg xmlns="http://www.w3.org/2000/svg" width="92" height="92" viewBox="0 0 92 92">
    <g fill="none" fill-rule="evenodd" transform="translate(2 2)">
        <path fill="#1E5253" fill-rule="nonzero" d="M66.266 26.746a.653.653 0 0 0-.102-.236c-2.336-3.447-8.195-3.26-11.84-3.303-.365-.004-.544.376-.465.668a2.874 2.874 0 0 0-.895.392c-3.746 2.61-5.531 8.089-7.3 12.084-1.694 3.825-3.608 7.534-5.255 11.381-.7 1.635-2.572 4.936-2.867 7.446-3.26-5.992-6.284-12.08-9.197-18.255-.153-.325-.503-.365-.78-.24-.723-.423-1.658-.093-2.424.1-1.043.265-2.132.576-3.107 1.042a.625.625 0 0 0-.305.3c-.35-.15-.832.151-.71.603 2.624 9.684 9.897 17.838 13.633 27.143a.85.85 0 0 0 .708.537c.07.142.189.257.373.299 1.374.31 2.75.474 4.155.587 1.227.099 2.66.348 3.85-.018.41-.126.576-.512.514-.86a.558.558 0 0 0 .306-.193c.124-.136-.001-.31-.165-.286.98-.142 1.877-4.479 2.152-5.232.88-2.41 1.845-4.787 2.81-7.163a58.478 58.478 0 0 1 1.858-4.08c.263-.47.506-.955.743-1.446 3.832-7.226 9.086-14.006 14.275-20.028.353-.408.286-.9.035-1.242zM26.82 38.498c-.055-.105-.107-.212-.161-.317.261-.064.517-.14.742-.263.043.12.092.24.136.36a.907.907 0 0 0-.717.22zm3.996 8.057c-.05-.069-.093-.14-.143-.208-.008-.012-.02-.015-.028-.026a28.26 28.26 0 0 0-.406-1.493l.007-.013c.245.531.492 1.06.747 1.587a.999.999 0 0 0-.177.153zM41.45 65.67a.81.81 0 0 0 .108-.639 5.84 5.84 0 0 0 .45-.365c-.027.113-.06.223-.087.335-.064.275.01.49.143.648-.205.004-.41.012-.614.021zm5.118-10.112c-.17.432-.365.888-.572 1.36.013-.1.025-.201.036-.303.252-.669.524-1.333.796-1.997.058-.042.118-.081.175-.124-.146.355-.295.707-.435 1.064zm4.776-9.976a85.324 85.324 0 0 0-2.406 4.58c-.235.34-.482.67-.741.986 1.03-1.987 2.155-3.923 3.27-5.863-.04.1-.082.198-.123.297zm5.86-17.828c.059-.103.118-.207.182-.31.266-.332.524-.682.772-1.062.027 0 .055-.003.082-.002.16.044.321.089.482.139a.75.75 0 0 0-.475.222c-.35.348-.696.684-1.043 1.013z"/>
        <circle cx="44.12" cy="44.12" r="44.12" stroke="#1E5253" stroke-width="3"/>
    </g>
</svg>
