<svg xmlns="http://www.w3.org/2000/svg" width="18" height="18" viewBox="0 0 18 18">
    <path fill="#4A4A4A" fill-rule="nonzero" d="M16.182 0H2.53C1.59 0 .822.78.822 1.731v13.85c0 .952.768 1.732 1.707 1.732h13.653c.939 0 1.707-.78 1.707-1.732V1.731C17.889.78 17.12 0 16.182 0zM14.22 6.32c-.086 3.98-2.56 6.75-6.315 6.924-1.536.087-2.645-.433-3.67-1.039 1.11.173 2.56-.26 3.329-.952-1.11-.086-1.792-.692-2.134-1.645.342.087.683 0 .939 0-1.024-.346-1.707-.952-1.792-2.337.256.173.597.26.939.26-.768-.433-1.28-2.078-.683-3.116 1.11 1.212 2.475 2.25 4.693 2.423-.597-2.423 2.646-3.722 3.926-2.077.597-.087 1.024-.346 1.45-.52-.17.607-.512.953-.938 1.299.426-.087.853-.173 1.194-.346-.085.433-.512.779-.938 1.125z"/>
</svg>
